Patient4_TMGait_0pt5_01_left_07_GRF.mot
version=1
nRows=38
nColumns=19
inDegrees=no
endheader
time	F1x	F1y	F1z	M1x	M1y	M1z	F2x	F2y	F2z	M2x	M2y	M2z	EC1x	EC1y	EC1z	EC2x	EC2y	EC2z
9.4	0	0	0	0	0	0	-15.198	689.5903	-52.4494	257.2181	41.4355	495.3694	-0.0462	0.0182	-0.0073	-0.0462	0.0165	0.9715
9.4134	0	0	0	0	0	0	-15.0801	720.6607	-54.8653	268.0527	42.6411	515.6839	-0.0462	0.0182	-0.0073	-0.0462	0.0165	0.9715
9.4269	0	0	0	0	0	0	-14.3815	736.8944	-56.249	273.2519	42.8503	524.6353	-0.0462	0.0182	-0.0073	-0.0462	0.0165	0.9715
9.4403	0	0	0	0	0	0	-13.2085	742.3635	-56.9032	274.4013	42.3366	525.1605	-0.0462	0.0182	-0.0073	-0.0462	0.0165	0.9715
9.4537	0	0	0	0	0	0	-11.6837	741.6087	-57.1352	273.2638	41.3863	520.5694	-0.0462	0.0182	-0.0073	-0.0462	0.0165	0.9715
9.4671	0	0	0	0	0	0	-9.9193	738.8331	-57.1954	271.4693	40.2436	513.9597	-0.0462	0.0182	-0.0073	-0.0462	0.0165	0.9715
9.4806	0	0	0	0	0	0	-8.0006	737.3096	-57.2382	270.2878	39.0742	507.7837	-0.0462	0.0182	-0.0073	-0.0462	0.0165	0.9715
9.494	0	0	0	0	0	0	-5.9788	739.0584	-57.3111	270.5038	37.9525	503.6107	-0.0462	0.0182	-0.0073	-0.0462	0.0165	0.9715
9.5074	0	0	0	0	0	0	-3.8752	744.7938	-57.3694	272.3951	36.8706	502.0823	-0.0462	0.0182	-0.0073	-0.0462	0.0165	0.9715
9.5209	0	0	0	0	0	0	-1.6923	754.0919	-57.3087	275.7956	35.7641	503.0278	-0.0462	0.0182	-0.0073	-0.0462	0.0165	0.9715
9.5343	0	0	0	0	0	0	0.57318	765.7104	-57.0086	280.2164	34.5453	505.6854	-0.0462	0.0182	-0.0073	-0.0462	0.0165	0.9715
9.5477	0	0	0	0	0	0	2.9197	777.9761	-56.376	284.9947	33.1373	508.9734	-0.0462	0.0182	-0.0073	-0.0462	0.0165	0.9715
9.5611	0	0	0	0	0	0	5.3371	789.1671	-55.3786	289.4408	31.4993	511.7542	-0.0462	0.0182	-0.0073	-0.0462	0.0165	0.9715
9.5746	0	0	0	0	0	0	7.8086	797.8296	-54.0643	292.9618	29.6411	513.0525	-0.0462	0.0182	-0.0073	-0.0462	0.0165	0.9715
9.588	0	0	0	0	0	0	10.3199	802.991	-52.5592	295.1468	27.6217	512.2012	-0.0462	0.0182	-0.0073	-0.0462	0.0165	0.9715
9.6014	0	0	0	0	0	0	12.8688	804.2565	-51.0471	295.8083	25.5359	508.9067	-0.0462	0.0182	-0.0073	-0.0462	0.0165	0.9715
9.6149	0	0	0	0	0	0	15.4735	801.79	-49.7336	294.9791	23.4913	503.2387	-0.0462	0.0182	-0.0073	-0.0462	0.0165	0.9715
9.6283	0	0	0	0	0	0	18.1755	796.1995	-48.8022	292.8732	21.5826	495.5573	-0.0462	0.0182	-0.0073	-0.0462	0.0165	0.9715
9.6417	0	0	0	0	0	0	21.0353	788.3514	-48.3718	289.8175	19.8677	486.3989	-0.0462	0.0182	-0.0073	-0.0462	0.0165	0.9715
9.6551	0	0	0	0	0	0	24.1211	779.1487	-48.4641	286.1685	18.3531	476.3393	-0.0462	0.0182	-0.0073	-0.0462	0.0165	0.9715
9.6686	0	0	0	0	0	0	27.4917	769.3083	-48.9869	282.2269	16.9885	465.8605	-0.0462	0.0182	-0.0073	-0.0462	0.0165	0.9715
9.682	0	0	0	0	0	0	31.1772	759.1726	-49.737	278.1629	15.6743	455.2389	-0.0462	0.0182	-0.0073	-0.0462	0.0165	0.9715
9.6954	15.2774	20.6311	-4.6508	-8.1911	10.3138	14.1694	35.159	748.5884	-50.4222	273.9658	14.2799	444.4748	-0.0462	0.0182	-0.0073	-0.0462	0.0165	0.9715
9.7089	16.2399	51.1179	-6.6315	-20.2656	12.2273	39.5162	39.3548	736.8754	-50.7021	269.4263	12.6692	433.2734	-0.0462	0.0182	-0.0073	-0.0462	0.0165	0.9715
9.7223	15.4782	90.3635	-7.9379	-35.7443	12.8442	72.2605	43.61	722.8966	-50.2404	264.1566	10.731	421.0838	-0.0462	0.0182	-0.0073	-0.0462	0.0165	0.9715
9.7357	12.8294	136.8273	-8.1497	-54.0008	11.7515	111.124	47.7002	705.2259	-48.761	257.6481	8.407	407.1903	-0.0462	0.0182	-0.0073	-0.0462	0.0165	0.9715
9.7491	8.4323	188.0373	-6.9439	-74.0478	8.7456	154.0311	51.346	682.392	-46.0989	249.3586	5.7123	390.8457	-0.0462	0.0182	-0.0073	-0.0462	0.0165	0.9715
9.7626	2.7084	240.9655	-4.1833	-94.69	3.8988	198.4203	54.2398	653.1606	-42.2337	238.8171	2.7433	371.423	-0.0462	0.0182	-0.0073	-0.0462	0.0165	0.9715
9.776	-3.7401	292.5665	0.024093	-114.7384	-2.43	241.7005	56.0835	616.8028	-37.3004	225.7249	-0.33098	348.5598	-0.0462	0.0182	-0.0073	-0.0462	0.0165	0.9715
9.7894	-10.2738	340.3507	5.3228	-133.2354	-9.6552	281.7397	56.6299	573.2973	-31.5727	210.0358	-3.2921	322.2649	-0.0462	0.0182	-0.0073	-0.0462	0.0165	0.9715
9.8029	-16.3547	382.818	11.1816	-149.6197	-17.0829	317.2382	55.7218	523.4201	-25.4237	191.9946	-5.9065	292.9641	-0.0462	0.0182	-0.0073	-0.0462	0.0165	0.9715
9.8163	-21.6374	419.6287	17.0136	-163.786	-24.054	347.8774	53.3202	468.6968	-19.2707	172.1261	-7.9625	261.4722	-0.0462	0.0182	-0.0073	-0.0462	0.0165	0.9715
9.8297	-26.0001	451.4942	22.3076	-176.0345	-30.0705	374.2266	49.5152	411.2241	-13.5165	151.1741	-9.304	228.8958	-0.0462	0.0182	-0.0073	-0.0462	0.0165	0.9715
9.8431	-29.5188	479.8536	26.7316	-186.9387	-34.8732	397.4675	44.5182	353.3932	-8.4973	130.0027	-9.8517	196.4846	-0.0462	0.0182	-0.0073	-0.0462	0.0165	0.9715
9.8566	-32.4051	506.4484	30.1824	-197.1774	-38.4591	419.0304	38.6349	297.5715	-4.4455	109.479	-9.6111	165.4628	-0.0462	0.0182	-0.0073	-0.0462	0.0165	0.9715
9.87	-34.9261	532.9072	32.7716	-207.3751	-41.0376	440.2398	32.2267	245.803	-1.4711	90.3624	-8.6663	136.8729	-0.0462	0.0182	-0.0073	-0.0462	0.0165	0.9715
9.8834	-37.3263	560.4266	34.7579	-217.9832	-42.9409	462.0434	25.6657	199.5831	0.43822	73.2185	-7.1627	111.46	-0.0462	0.0182	-0.0073	-0.0462	0.0165	0.9715
9.8969	-39.7631	589.5906	36.4528	-229.2168	-44.5188	484.8616	19.2941	159.7443	1.4005	58.3742	-5.2837	89.6165	-0.0462	0.0182	-0.0073	-0.0462	0.0165	0.9715
